<svg width="100" height="100" viewBox="0 0 133 133" fill="none" xmlns="http://www.w3.org/2000/svg">
<circle cx="66.5" cy="66.5" r="61.5" stroke="white" stroke-width="10"/>
<path fill-rule="evenodd" clip-rule="evenodd" d="M66.1079 35.9459C63.3464 35.9459 61.1079 38.1844 61.1079 40.9459V74.081C61.1079 76.8424 63.3464 79.081 66.1079 79.081H68.0898C70.8513 79.081 73.0898 76.8424 73.0898 74.081V40.9459C73.0898 38.1844 70.8513 35.9459 68.0899 35.9459H66.1079ZM66.1075 85.0722C63.3461 85.0722 61.1075 87.3108 61.1075 90.0722V92.0542C61.1075 94.8156 63.3461 97.0542 66.1075 97.0542H68.0895C70.8509 97.0542 73.0895 94.8156 73.0895 92.0542V90.0722C73.0895 87.3108 70.851 85.0722 68.0895 85.0722H66.1075Z" fill="white"/>
</svg>
